<?xml version="1.0" encoding="UTF-8" standalone="no"?><!DOCTYPE svg PUBLIC "-//W3C//DTD SVG 1.1//EN" "http://www.w3.org/Graphics/SVG/1.1/DTD/svg11.dtd"><svg width="100%" height="100%" viewBox="0 0 387 247" version="1.1" xmlns="http://www.w3.org/2000/svg" xmlns:xlink="http://www.w3.org/1999/xlink" xml:space="preserve" xmlns:serif="http://www.serif.com/" style="fill-rule:evenodd;clip-rule:evenodd;stroke-miterlimit:10;"><path d="M350.09,56.03l0,133.73c0,12.225 -9.925,22.15 -22.15,22.15l-268.93,0c-12.225,0 -22.15,-9.925 -22.15,-22.15l0,-133.73c0,-12.225 9.925,-22.15 22.15,-22.15l268.93,0c12.225,0 22.15,9.925 22.15,22.15Z" style="fill:none;stroke:#fff;stroke-width:12.1px;"/><path d="M154.06,175.01l-8.64,0l0,-11.12c-1.58,1.06 -3.71,2.54 -6.39,4.44c-2.68,1.9 -5.29,3.41 -7.81,4.53c-2.97,1.43 -6.38,2.63 -10.23,3.6c-3.85,0.97 -8.37,1.45 -13.54,1.45c-9.53,0 -17.62,-3.12 -24.25,-9.35c-6.63,-6.23 -9.94,-14.18 -9.94,-23.84c0,-7.91 1.72,-14.32 5.16,-19.21c3.44,-4.89 8.35,-8.74 14.73,-11.54c6.44,-2.8 14.17,-4.7 23.2,-5.7c9.03,-1 18.72,-1.74 29.08,-2.24l0,-2.71c0,-3.99 0.45,-13.06 -0.74,-15.34c-1.64,-3.15 -3.58,-3.62 -4.15,-3.82c-2.76,-0.99 -8.75,-0.45 -12.49,-0.52c-3.74,-0.07 -7.19,-0.05 -11.04,-0.05c-4.67,0 -9.38,0.05 -15.25,0.05l-21.9,0c-0.84,0.19 -1.37,-0.7 -1.56,-1.54l0,-12.54c0,-0.77 0.8,-1.52 1.56,-1.54c4.03,-0.08 11.2,0.11 17.13,0.04c6.95,-0.09 13.74,0.01 20.12,0.01l29.58,0c5.66,0 8.91,-0.1 12.96,2.82c3.98,2.87 3.35,10.8 3.35,15.8c0,4.34 0.14,10.73 0.14,17.46l0,61.9c0,4.94 -4.06,8.95 -9.07,8.95l-0.01,0.01Zm-8.64,-25.71l0,-29.07c-5.43,0.31 -11.82,0.78 -19.18,1.4c-7.36,0.62 -13.18,1.53 -17.47,2.71c-5.11,1.43 -9.25,3.66 -12.41,6.68c-3.16,3.02 -4.74,7.18 -4.74,12.48c0,5.98 1.83,10.49 5.49,13.51c3.66,3.02 9.25,4.53 16.76,4.53c6.25,0 11.97,-1.2 17.14,-3.6c5.18,-2.4 9.98,-5.28 14.4,-8.65l0.01,0.01Z" style="fill:#fff;fill-rule:nonzero;stroke:#fff;stroke-width:1px;stroke-linejoin:round;stroke-miterlimit:2;"/><g opacity="0.2"><path d="M101.48,71.35l0,11.78c0,0.8 -0.65,1.45 -1.45,1.45l-13.27,0c-0.8,0 -1.45,-0.65 -1.45,-1.45l0,-11.78c0,-0.8 0.65,-1.45 1.45,-1.45l13.27,0c0.8,0 1.45,0.65 1.45,1.45Z" style="fill:none;stroke:#1d1d1b;stroke-width:0.12px;"/></g></svg>